<svg width="160" height="160" viewBox="0 0 160 160" fill="none" xmlns="http://www.w3.org/2000/svg">
<circle cx="80" cy="80" r="80" fill="white"/>
<path d="M106.901 128.322L112.459 130.146C113.546 130.501 114.692 130.638 115.832 130.55C116.971 130.462 118.082 130.15 119.102 129.632C120.121 129.114 121.028 128.4 121.771 127.531C122.514 126.663 123.078 125.656 123.432 124.569L144.576 59.4959C145.285 57.3049 145.099 54.9223 144.057 52.8683C143.016 50.8143 141.204 49.2556 139.018 48.5326L119.402 42.1533C119.527 42.8763 119.604 43.6069 119.631 44.3402V112.766C119.608 116.423 118.332 119.962 116.015 122.793C113.699 125.624 110.482 127.576 106.901 128.322Z" fill="black"/>
<path d="M96.8839 121.713H103.855C106.201 121.656 108.433 120.692 110.083 119.023C111.732 117.354 112.67 115.11 112.699 112.764V44.339C112.661 42.0159 111.714 39.8002 110.06 38.168C108.407 36.5359 106.179 35.6176 103.855 35.6104H83.4854C83.8167 36.2136 84.0733 36.855 84.2494 37.5203L105.393 102.555C106.556 106.237 106.333 110.217 104.765 113.745C103.198 117.273 100.395 120.107 96.8839 121.713Z" fill="black"/>
<rect x="28.0993" y="67.4617" width="49.2534" height="49" transform="rotate(-17.5784 28.0993 67.4617)" fill="#FF0000"/>
<path d="M16.4161 59.4964L37.5597 124.57C37.9125 125.656 38.4761 126.663 39.2183 127.531C39.9605 128.4 40.8666 129.113 41.8849 129.631C42.9032 130.149 44.0136 130.462 45.1526 130.55C46.2917 130.638 47.437 130.501 48.523 130.147L93.188 115.64C95.3783 114.921 97.1951 113.365 98.2417 111.311C99.2884 109.257 99.48 106.872 98.7748 104.677L77.6312 39.6038C77.2784 38.5172 76.7147 37.5108 75.9726 36.6423C75.2304 35.7737 74.3242 35.06 73.306 34.542C72.2877 34.024 71.1773 33.7118 70.0382 33.6234C68.8992 33.535 67.7539 33.672 66.6679 34.0267L22.0028 48.533C19.8141 49.2544 17.9989 50.8113 16.9526 52.8646C15.9062 54.918 15.7134 57.3015 16.4161 59.4964ZM40.4533 69.0463C45.7631 65.2263 50.9582 66.8594 54.4344 70.6984C55.5708 65.8757 58.2544 61.1485 64.7865 61.1485C72.5506 61.1485 84.8414 73.8213 63.7551 99.4056C31.6864 91.0876 34.1408 73.5921 40.4533 69.0558V69.0463Z" fill="black"/>
</svg>
